<svg width="8" height="8" viewBox="0 0 8 8" fill="none" xmlns="http://www.w3.org/2000/svg">
<path fill-rule="evenodd" clip-rule="evenodd" d="M1.00966 4.18146C1.00957 4.13888 1.0012 4.09635 0.984573 4.05627L0.755025 3.50048C0.706529 3.38343 0.681478 3.25778 0.681458 3.13108C0.681437 3.00431 0.706395 2.87878 0.754906 2.76166C0.803417 2.64454 0.87453 2.53813 0.964182 2.4485C1.05381 2.3589 1.16021 2.28783 1.27731 2.23935L1.83219 2.0095C1.91255 1.97628 1.97665 1.91247 2.0101 1.8322L2.24001 1.27714C2.33794 1.04071 2.52578 0.852855 2.76222 0.754917C2.99865 0.656979 3.26431 0.656979 3.50074 0.754917L4.05537 0.98466C4.13585 1.01789 4.22633 1.01784 4.30675 0.984471L4.30738 0.98421L4.8625 0.755255C5.09885 0.65745 5.36456 0.657418 5.60089 0.755311C5.83728 0.853229 6.0251 1.04103 6.12304 1.2774L6.34743 1.81913C6.34942 1.8234 6.35133 1.82774 6.35315 1.83214C6.38641 1.91259 6.45023 1.97654 6.53059 2.00997L7.0858 2.23995C7.32223 2.33789 7.51008 2.52574 7.60801 2.76218C7.70594 2.99861 7.70594 3.26427 7.60801 3.50071L7.37817 4.05561C7.36147 4.09592 7.35313 4.13885 7.35313 4.18156C7.35313 4.22426 7.36147 4.26701 7.37817 4.30731L7.60801 4.86222C7.70594 5.09866 7.70594 5.36431 7.60801 5.60075C7.51008 5.83719 7.32223 6.02504 7.0858 6.12298L6.53059 6.35296C6.45023 6.38639 6.38641 6.45034 6.35315 6.53079C6.35133 6.53518 6.34942 6.53952 6.34743 6.5438L6.12304 7.08552C6.0251 7.3219 5.83728 7.5097 5.60089 7.60762C5.36456 7.70551 5.09885 7.70548 4.8625 7.60767L4.30738 7.37872L4.30675 7.37846C4.22633 7.34508 4.13585 7.34504 4.05537 7.37827L3.50074 7.60801C3.26431 7.70595 2.99865 7.70595 2.76222 7.60801C2.52578 7.51007 2.33794 7.32222 2.24001 7.08578L2.0101 6.53073C1.97665 6.45046 1.91255 6.38665 1.83219 6.35342L1.27731 6.12357C1.16021 6.0751 1.05381 6.00403 0.964182 5.91443C0.87453 5.8248 0.803417 5.71839 0.754906 5.60127C0.706395 5.48415 0.681437 5.35862 0.681458 5.23185C0.681478 5.10515 0.706529 4.9795 0.755025 4.86245L0.984573 4.30666C1.0012 4.26658 1.00957 4.22404 1.00966 4.18146ZM5.52008 3.611C5.64434 3.48674 5.64434 3.28528 5.52008 3.16102C5.39582 3.03676 5.19436 3.03676 5.07011 3.16102L3.86328 4.36785L3.4519 3.95647C3.32764 3.83222 3.12618 3.83222 3.00192 3.95647C2.87767 4.08073 2.87767 4.28219 3.00192 4.40645L3.63829 5.04282C3.76254 5.16707 3.96401 5.16707 4.08826 5.04282L5.52008 3.611Z" fill="#1C63D5"/>
</svg>
